<svg id="圖層_1" data-name="圖層 1" xmlns="http://www.w3.org/2000/svg" xmlns:xlink="http://www.w3.org/1999/xlink" viewBox="0 0 428 414"><defs><style>.cls-1{fill:#373216;}.cls-2{fill:url(#未命名漸層_7);}</style><linearGradient id="未命名漸層_7" x1="71.64" y1="93.28" x2="275.63" y2="241.77" gradientUnits="userSpaceOnUse"><stop offset="0" stop-color="#f5bf1f"/><stop offset="1" stop-color="#a58c21"/></linearGradient></defs><title>arrow</title><path class="cls-1" d="M409.91,359.86v8.64A10.85,10.85,0,0,1,401.84,379a10.95,10.95,0,0,1-12.09-5.12c-58.39-103-106.48-107.92-176.16-108.16v74.64a10.74,10.74,0,0,1-6.23,9.76,11,11,0,0,1-11.52-1.44L23.52,206.1a10.85,10.85,0,0,1-3.93-8.32,11,11,0,0,1,3.93-8.4L195.91,47.3a10.75,10.75,0,0,1,17.61,8.32V130.5c83.67,3,141.19,32.56,171.12,87.84C410.39,266,410.16,322.5,409.91,359.86Z"/><path class="cls-2" d="M408.91,349.86v8.64A10.85,10.85,0,0,1,400.84,369a10.95,10.95,0,0,1-12.09-5.12c-58.39-103-106.48-107.92-176.16-108.16v74.64a10.74,10.74,0,0,1-6.23,9.76,11,11,0,0,1-11.52-1.44L22.52,196.1a10.85,10.85,0,0,1-3.93-8.32,11,11,0,0,1,3.93-8.4L194.91,37.3a10.75,10.75,0,0,1,17.61,8.32V120.5c83.67,3,141.19,32.56,171.12,87.84C409.39,256,409.16,312.5,408.91,349.86Z"/></svg>