<svg xmlns="http://www.w3.org/2000/svg" xmlns:xlink="http://www.w3.org/1999/xlink" viewBox="0 0 193 180"><defs><style>.cls-1{isolation:isolate;}.cls-2{fill:#db8e05;}.cls-3{fill:url(#Degradado_sin_nombre_1523);}.cls-4{fill:#fff;}.cls-5{fill:url(#Degradado_sin_nombre_1522);}.cls-6{fill:url(#Degradado_sin_nombre_1521);}.cls-7{fill:url(#Degradado_sin_nombre_1520);}.cls-8{fill:#c47400;}.cls-9{opacity:0.7;mix-blend-mode:soft-light;}.cls-10{fill:#fff8d2;}.cls-11{mix-blend-mode:screen;fill:url(#Degradado_sin_nombre_1518);}</style><linearGradient id="Degradado_sin_nombre_1523" x1="53.98" y1="52.01" x2="92.86" y2="166.72" gradientTransform="matrix(1.05, -0.05, -0.05, 1, 22.64, -22.73)" gradientUnits="userSpaceOnUse"><stop offset="0.09" stop-color="#fff8d2"/><stop offset="0.53" stop-color="#eddc77"/><stop offset="0.88" stop-color="#fff8d2"/></linearGradient><linearGradient id="Degradado_sin_nombre_1522" x1="100.44" y1="47.85" x2="52.95" y2="177.17" gradientTransform="matrix(1.05, -0.05, -0.05, 1, 22.64, -22.73)" gradientUnits="userSpaceOnUse"><stop offset="0" stop-color="#fff8d2"/><stop offset="0.92" stop-color="#fed702"/></linearGradient><linearGradient id="Degradado_sin_nombre_1521" x1="103.13" y1="39.41" x2="49.67" y2="187.14" gradientTransform="matrix(1.05, -0.05, -0.05, 1, 22.64, -22.73)" gradientUnits="userSpaceOnUse"><stop offset="0" stop-color="#fed702"/><stop offset="0.92" stop-color="#f8b100"/></linearGradient><linearGradient id="Degradado_sin_nombre_1520" x1="48.13" y1="175.31" x2="106.81" y2="47.84" gradientTransform="matrix(1.05, -0.05, -0.05, 1, 22.64, -22.73)" gradientUnits="userSpaceOnUse"><stop offset="0" stop-color="#fed702"/><stop offset="0.88" stop-color="#f8b100"/></linearGradient><linearGradient id="Degradado_sin_nombre_1518" x1="123.24" y1="-1.95" x2="105.69" y2="136.61" gradientTransform="matrix(1.05, -0.05, -0.05, 1, 22.64, -22.73)" gradientUnits="userSpaceOnUse"><stop offset="0" stop-color="#fff8d2"/><stop offset="1" stop-color="#fff8d2" stop-opacity="0"/></linearGradient></defs><title>money</title><g class="cls-1"><g id="OBJECTS"><circle class="cls-2" cx="92.34" cy="89.37" r="80.41"/><path class="cls-3" d="M127.7,91.33a25.89,25.89,0,0,1,1.67,10.11,27.13,27.13,0,0,1-2.51,11.92,23.27,23.27,0,0,1-6.4,8,27.54,27.54,0,0,1-9,4.67A43.87,43.87,0,0,1,101,127.92l-.13,14.39-9.37-.09.13-14.63a75.17,75.17,0,0,1-16-3.36,66,66,0,0,1-14.24-6.44l10-20.23a71.38,71.38,0,0,0,6.77,3.87,68.94,68.94,0,0,0,7.07,3.1,40.66,40.66,0,0,0,8.24,2.16l.09-10.46c-2.42-.67-4.83-1.44-7.24-2.33a61.18,61.18,0,0,1-9.46-4.2,25.76,25.76,0,0,1-6.52-5,17.76,17.76,0,0,1-3.74-6.4A25.28,25.28,0,0,1,65.42,70a28.6,28.6,0,0,1,2.22-11.33,26,26,0,0,1,5.82-8.45A27.79,27.79,0,0,1,82,44.64,34.81,34.81,0,0,1,92.4,42l.11-12,9.37.09-.11,12.13a58,58,0,0,1,7.49,1.49c2.42.66,4.73,1.43,7,2.28s4.29,1.74,6.24,2.67,3.73,1.8,5.36,2.61l-10,19a48.7,48.7,0,0,0-5.6-3.15,49.61,49.61,0,0,0-5.78-2.49A43.31,43.31,0,0,0,100,62.88l-.1,10.7a21.06,21.06,0,0,1,2.22.67c.78.29,1.6.55,2.46.8a84.62,84.62,0,0,1,10.34,4,32.5,32.5,0,0,1,7.85,5.13A19.47,19.47,0,0,1,127.7,91.33ZM103.54,106a3.08,3.08,0,0,0,1.19-2.49,3.78,3.78,0,0,0-1.37-2.92,13,13,0,0,0-3.73-2.24l-.08,8.8a7.48,7.48,0,0,0,4-1.15M93.78,71.5l.08-9c-3.14.37-4.71,1.7-4.73,4a3.84,3.84,0,0,0,1.15,2.91,10.69,10.69,0,0,0,3.5,2.12"/><path class="cls-4" d="M93.94,60.63q-4.69.54-4.72,4a4.12,4.12,0,0,0,.06.8c.44-1.65,2-2.64,4.58-3l-.07,7.15.07,0Z"/><path class="cls-4" d="M112.3,65.31a49.61,49.61,0,0,0-5.78-2.49A43.31,43.31,0,0,0,100,61l0,1.86a43.24,43.24,0,0,1,6.41,1.76,49.61,49.61,0,0,1,5.78,2.49,48.7,48.7,0,0,1,5.6,3.15l10-19-.7-.34-9.23,17.54A47.71,47.71,0,0,0,112.3,65.31Z"/><path class="cls-4" d="M103.45,98.7a13,13,0,0,0-3.73-2.24l0,1.87a13.14,13.14,0,0,1,3.66,2.21,4,4,0,0,1,1.29,2.09,3.24,3.24,0,0,0,.17-1A3.77,3.77,0,0,0,103.45,98.7Z"/><path class="cls-4" d="M91.59,140.38l.13-14.64a75.15,75.15,0,0,1-16-3.35,67,67,0,0,1-13.6-6.08l-.73,1.48a66,66,0,0,0,14.24,6.44,75.17,75.17,0,0,0,16,3.36l-.13,14.63,9.37.09,0-1.85Z"/><path class="cls-4" d="M127,111.52a23.23,23.23,0,0,1-6.41,8,27.42,27.42,0,0,1-9,4.68,43.86,43.86,0,0,1-10.44,1.85l0,1.84a43.79,43.79,0,0,0,10.37-1.85,27.39,27.39,0,0,0,9-4.67,23.18,23.18,0,0,0,6.41-8A26.68,26.68,0,0,0,129.35,102,25.67,25.67,0,0,1,127,111.52Z"/><path class="cls-4" d="M70.33,84.65a25.76,25.76,0,0,0,6.52,5,61.18,61.18,0,0,0,9.46,4.2c2.41.89,4.82,1.66,7.24,2.33l-.07,8.6.07,0,.09-10.47c-2.42-.66-4.84-1.43-7.24-2.32a61.18,61.18,0,0,1-9.46-4.2,25.58,25.58,0,0,1-6.52-5,18,18,0,0,1-3.75-6.4,25.09,25.09,0,0,1-1.15-8.12c0,.58-.09,1.15-.1,1.75a25.28,25.28,0,0,0,1.17,8.21A17.76,17.76,0,0,0,70.33,84.65Z"/><path class="cls-4" d="M92.49,40.16,92.58,30h-.07l-.09,10.18Z"/><path class="cls-5" d="M96.52,20.15c38,.36,68.58,32,68.23,70.52s-31.51,69.56-69.49,69.2S26.68,127.86,27,89.35,58.55,19.78,96.52,20.15ZM95.29,156.07c35.92.34,65.4-29,65.73-65.44S132.4,24.28,96.48,23.94,31.1,53,30.77,89.38s28.62,66.34,64.52,66.69"/><path class="cls-6" d="M96.61,10c43.54.42,78.52,36.55,78.12,80.72s-36,79.64-79.56,79.22S16.66,133.42,17.05,89.25,53.07,9.62,96.61,10ZM95.26,159.87c38,.36,69.15-30.68,69.49-69.2S134.5,20.51,96.52,20.15,27.38,50.82,27,89.35s30.26,70.15,68.23,70.52"/><path class="cls-7" d="M99.63,98.3l-.08,8.8a7.51,7.51,0,0,0,4-1.15,3.08,3.08,0,0,0,1.19-2.49,3.78,3.78,0,0,0-1.37-2.92A13,13,0,0,0,99.63,98.3ZM89.44,64.92a1.34,1.34,0,0,0-.07.18,3.72,3.72,0,0,0-.24,1.37v.23a4.25,4.25,0,0,0,.12.89c0,.14.08.28.13.41l.09.22a.08.08,0,0,0,0,0h0c0,.07.07.14.11.22a2.26,2.26,0,0,0,.16.26v0a4.23,4.23,0,0,0,.51.61,10.69,10.69,0,0,0,3.5,2.12l.08-9C91.51,62.75,90,63.56,89.44,64.92ZM161,90.63c.32-36.43-28.62-66.35-64.54-66.69S31.1,53,30.77,89.38s28.62,66.34,64.52,66.69S160.69,127.05,161,90.63Zm-34.16,22.73a23.18,23.18,0,0,1-6.41,8,27.39,27.39,0,0,1-9,4.67A43.87,43.87,0,0,1,101,127.92l-.13,14.39-9.37-.09.13-14.63a75.17,75.17,0,0,1-16-3.36,66,66,0,0,1-14.24-6.44l10-20.23a71.38,71.38,0,0,0,6.77,3.87,68.94,68.94,0,0,0,7.07,3.1,40.66,40.66,0,0,0,8.24,2.16l.09-10.46c-2.42-.67-4.83-1.44-7.24-2.33a61.18,61.18,0,0,1-9.46-4.2,25.76,25.76,0,0,1-6.52-5,17.76,17.76,0,0,1-3.74-6.4A25.28,25.28,0,0,1,65.42,70a28.6,28.6,0,0,1,2.22-11.33,26,26,0,0,1,5.82-8.45A27.79,27.79,0,0,1,82,44.64,34.81,34.81,0,0,1,92.4,42l.11-12,9.37.09-.11,12.13a58,58,0,0,1,7.49,1.49c2.42.66,4.73,1.43,7,2.28s4.29,1.74,6.24,2.67,3.73,1.8,5.36,2.61l-10,19a48.7,48.7,0,0,0-5.6-3.15,49.61,49.61,0,0,0-5.78-2.49A43.31,43.31,0,0,0,100,62.88l-.1,10.7a21.06,21.06,0,0,1,2.22.67c.78.29,1.6.55,2.46.8a83.81,83.81,0,0,1,10.33,4,32.37,32.37,0,0,1,7.86,5.13,19.47,19.47,0,0,1,5,7.13,25.89,25.89,0,0,1,1.67,10.11A27.13,27.13,0,0,1,126.86,113.36Z"/><path class="cls-8" d="M95.64,25.45c35.92.34,64.86,30.26,64.54,66.69A66.42,66.42,0,0,1,152.31,123,66.47,66.47,0,0,0,161,90.63c.32-36.43-28.62-66.35-64.54-66.69a65,65,0,0,0-57.84,34.6A65,65,0,0,1,95.64,25.45Z"/><path class="cls-2" d="M17.05,89.25a80.12,80.12,0,0,1,37.57-67.4,80.09,80.09,0,0,0-39.54,68.6c-.4,44.16,34.57,80.3,78.11,80.72a77.54,77.54,0,0,0,36.32-8.59l4.68-2.64a77.65,77.65,0,0,1-39,10C51.63,169.56,16.66,133.42,17.05,89.25Z"/><path class="cls-8" d="M88.67,68a3.84,3.84,0,0,0,1.16,2.91,13.14,13.14,0,0,0,3.9,2.32V71.5a13.05,13.05,0,0,1-3.46-2.12,3.84,3.84,0,0,1-1.15-2.91,2.21,2.21,0,0,1,0-.37A3.7,3.7,0,0,0,88.67,68Z"/><path class="cls-8" d="M99.85,73.58a21.06,21.06,0,0,1,2.22.67c.78.29,1.6.55,2.46.8a83.81,83.81,0,0,1,10.33,4,32.37,32.37,0,0,1,7.86,5.13,19.47,19.47,0,0,1,5,7.13,25.89,25.89,0,0,1,1.67,10.11,29.45,29.45,0,0,1-1.46,9.38,30.82,30.82,0,0,0,1-7.89,25.74,25.74,0,0,0-1.67-10.11,19.41,19.41,0,0,0-5-7.13,32.76,32.76,0,0,0-7.86-5.13,84.62,84.62,0,0,0-10.34-4c-.86-.25-3.63-1.32-4.32-1.48l.1-1.48"/><path class="cls-8" d="M104.26,105.13a3.08,3.08,0,0,1-.72.82,7.48,7.48,0,0,1-4,1.15l.08-8.8-.44-.2-.1,10.49a7.62,7.62,0,0,0,4-1.14A3.09,3.09,0,0,0,104.26,105.13Z"/><path class="cls-8" d="M100.56,128l-.13,14.35h.44l.13-14.39C100.86,127.93,100.71,128,100.56,128Z"/><path class="cls-8" d="M70.93,99.05a70.16,70.16,0,0,0,6.77,3.87,67.51,67.51,0,0,0,7.06,3.1,44.55,44.55,0,0,0,8.69,2.23v-1.57a44.61,44.61,0,0,1-8.24-2.15,68.94,68.94,0,0,1-7.07-3.1,71.38,71.38,0,0,1-6.77-3.87l-10,20.23.22.13Z"/><path class="cls-8" d="M67.18,60.2A26.17,26.17,0,0,1,73,51.75a28.21,28.21,0,0,1,8.55-5.62A37.88,37.88,0,0,1,92.4,43.44V42A34.36,34.36,0,0,0,82,44.64a28.78,28.78,0,0,0-8.55,5.62,26,26,0,0,0-5.82,8.45,23.71,23.71,0,0,0-1.15,3.36C66.71,61.43,66.92,60.8,67.18,60.2Z"/><path class="cls-8" d="M101.43,31.58l-.11,12.12a57.9,57.9,0,0,1,7.48,1.5q3.63,1,7,2.27T122,50.14c1.85.88,3.54,1.71,5.1,2.48l.72-1.36q-2.44-1.21-5.36-2.61T116.22,46c-2.23-.85-4.54-1.62-7-2.28a58,58,0,0,0-7.49-1.49l.11-12.13L92.51,30v1.5Z"/><g class="cls-9"><path class="cls-10" d="M171.56,67.54A80.59,80.59,0,0,0,168,57.66L42.49,148.82a80.16,80.16,0,0,0,8.08,6.6Z"/><path class="cls-10" d="M162.9,47.9a80.23,80.23,0,0,0-17.45-20.06L21.89,117.59A80.29,80.29,0,0,0,35,140.79Z"/><path class="cls-10" d="M18,102.38q.42,2.78,1,5.48L137.31,22c-1.56-1-3.16-1.88-4.79-2.75Z"/></g><path class="cls-11" d="M174.73,90.76c.39-43.57-33.63-79.29-76.35-80.66L90.5,169.78c1.54.11,3.1.18,4.67.2C138.71,170.4,174.33,134.93,174.73,90.76Z"/></g></g></svg>