<svg id="圖層_1" data-name="圖層 1" xmlns="http://www.w3.org/2000/svg" xmlns:xlink="http://www.w3.org/1999/xlink" viewBox="0 0 428 414"><defs><style>.cls-1{fill:none;}.cls-2{fill:#f5ea29;}.cls-3{clip-path:url(#clip-path);}</style><clipPath id="clip-path"><rect class="cls-1" x="14" y="12" width="392" height="392"/></clipPath></defs><title>light-bulb</title><path class="cls-2" d="M210,77c-59.36,0-102.24,44.24-109,91.76-4.24,31.68,6,62.56,27.28,85.92a108.71,108.71,0,0,1,29,74.24l-.08,43.36c0,17.52,14.48,31.68,32.4,31.68h41.76c17.92,0,32.4-14.16,32.4-31.68l.08-43.36c0-28.32,9.36-54.24,27.28-72.56a103.07,103.07,0,0,0,29.84-72.56C320.8,124.56,270.48,77,210,77Zm22.08,310.32H190.32a15.09,15.09,0,0,1-15.36-15v-19.2h72.4v19.2h.08A15.15,15.15,0,0,1,232.08,387.36Zm-37-107.27a9,9,0,0,1,9.32-9.31c5.72,0,9.53,4,9.53,9.31,0,6.36-3,9.53-9.53,9.53A9.23,9.23,0,0,1,195.07,280.09Zm12.5-69.44v27.1h-5.72V200.7c11-1.06,39.59-4.45,39.59-35.36,0-17.15-14.18-27.53-30.91-27.53-15.88,0-23.29,9.11-23.29,17.36.85,4,.85,4.45,1.48,8.47,0,4-2.75,8.26-8,8.26-5.93,0-8.47-4.23-8.47-8.47,0-15,14.61-31.34,36-31.34,19.06,0,42.13,8.68,42.13,38.75C250.33,198.79,224.08,208.32,207.57,210.65Z"/><rect class="cls-2" x="201.44" y="12" width="17.04" height="40"/><g class="cls-3"><path class="cls-2" d="M313.28,89.12,325.2,101,354.4,73,342.4,61Zm0,0"/><rect class="cls-2" x="364.24" y="192.16" width="41.76" height="16.72"/></g><rect class="cls-2" x="14" y="192.16" width="41.76" height="16.72"/><path class="cls-2" d="M77.28,61l-12,11.92L94.48,101,106.4,89Z"/></svg>