<svg id="圖層_1" data-name="圖層 1" xmlns="http://www.w3.org/2000/svg" xmlns:xlink="http://www.w3.org/1999/xlink" viewBox="0 0 1006.99 643"><defs><style>.cls-1{opacity:0.4;}.cls-2{fill:url(#未命名漸層);}.cls-3{opacity:0.5;fill:url(#未命名漸層-2);}.cls-4{fill:#f1e7d7;}.cls-5{fill:#f9efcb;}.cls-6{fill:#e2ca80;}.cls-7{font-size:30px;}.cls-7,.cls-8{fill:#873927;}.cls-16,.cls-7,.cls-8{font-family:AdobeMingStd-Light-B5pc-H, Adobe Ming Std;}.cls-8{font-size:57.67px;}.cls-11,.cls-9{fill:none;}.cls-9{stroke:#353535;}.cls-11,.cls-12,.cls-9{stroke-miterlimit:10;}.cls-10{opacity:0.2;fill:url(#未命名漸層-3);}.cls-11{stroke:#fff;}.cls-12,.cls-16{fill:#fff;}.cls-12{stroke:#874a40;stroke-width:3px;}.cls-13{fill:#2c938e;}.cls-14{fill:#0c7777;}.cls-15{fill:#3a9d9a;}.cls-16{font-size:41px;}</style><linearGradient id="未命名漸層" x1="371.85" y1="41.73" x2="871.85" y2="639.73" gradientUnits="userSpaceOnUse"><stop offset="0" stop-color="#fff"/><stop offset="1"/></linearGradient><linearGradient id="未命名漸層-2" x1="278.36" y1="119.9" x2="778.36" y2="717.9" xlink:href="#未命名漸層"/><linearGradient id="未命名漸層-3" x1="913.26" y1="89.6" x2="913.26" y2="152.08" xlink:href="#未命名漸層"/></defs><title>遮罩</title><g class="cls-1"><path class="cls-2" d="M982,273a1266,1266,0,0,0-969,0V111a1266,1266,0,0,1,969,0Z"/></g><rect class="cls-3" x="13" y="128" width="969" height="508"/><path class="cls-4" d="M926.85,167a20.06,20.06,0,0,1,20,20V571.6c0,11-2,24.5-4.5,30s-24.51,10-35.51,10H88.17c-11,0-24.5-2-30-4.5s-10-24.5-10-35.5V187a20.06,20.06,0,0,1,20-20Z"/><rect class="cls-5" x="48.75" y="167.6" width="898" height="60" rx="20" ry="20"/><path class="cls-6" d="M946.85,551.6v40a20.06,20.06,0,0,1-20,20H68.17a20.07,20.07,0,0,1-20-20v-40Z"/><path class="cls-6" d="M946.85,571.6v20a20.06,20.06,0,0,1-20,20H68.17a20.07,20.07,0,0,1-20-20v-20a20.07,20.07,0,0,1,20-20H926.84A20.06,20.06,0,0,1,946.85,571.6Z"/><text class="cls-7" transform="translate(448.24 209.6)">序號</text><text class="cls-7" transform="translate(239.25 209.6)">牌局編號</text><text class="cls-7" transform="translate(104.25 209.6)">房間</text><text class="cls-7" transform="translate(589.74 209.6)">盈利</text><text class="cls-7" transform="translate(743.24 209.6)">結束時間</text><text class="cls-7" transform="translate(314.75 593.6)">展示一天最近10條遊戲紀錄</text><text class="cls-8" transform="translate(314.75 408.41)">暫無牌局紀錄</text><circle class="cls-9" cx="913.26" cy="119.78" r="33.24"/><circle class="cls-10" cx="913.26" cy="119.24" r="33.24"/><circle class="cls-11" cx="913.26" cy="119.24" r="33.24"/><path class="cls-12" d="M918.26,119.24l11.08-11.08a1.88,1.88,0,0,0,0-2.67L927,103.16a1.88,1.88,0,0,0-2.67,0l-11.08,11.08-11.09-11.08a1.87,1.87,0,0,0-2.66,0l-2.34,2.33a1.9,1.9,0,0,0,0,2.67l11.09,11.08-11.09,11.09a1.89,1.89,0,0,0,0,2.66l2.34,2.34a1.89,1.89,0,0,0,2.66,0l11.09-11.09,11.08,11.09a1.9,1.9,0,0,0,2.67,0l2.33-2.34a1.87,1.87,0,0,0,0-2.66Z"/><polygon class="cls-13" points="608.79 132.84 703.5 153.34 693.62 125.34 713.9 103.65 619.18 83.16 608.79 132.84"/><polygon class="cls-14" points="668.94 136.15 608.51 132.83 614.06 102.01 668.94 136.15"/><polygon class="cls-13" points="383 132.84 288.28 153.33 298.17 125.33 277.89 103.65 372.6 83.16 383 132.84"/><polygon class="cls-14" points="322.84 136.15 383.27 132.82 377.73 102.01 322.84 136.15"/><path class="cls-15" d="M322.91,136.22c114.83-43.94,231.42-43.94,346.25,0V72.77c-114.83-43.93-231.42-43.93-346.25,0Z"/><text class="cls-16" transform="translate(390.7 104.16) rotate(-18.67)"> </text><text class="cls-16" transform="matrix(0.96, -0.29, 0.29, 0.96, 400.23, 100.94)"> </text><text class="cls-16" transform="translate(409.88 98.01) rotate(-15.15)"> </text><text class="cls-16" transform="translate(419.18 94.9) rotate(-10.96)">牌</text><text class="cls-16" transform="matrix(1, -0.07, 0.07, 1, 458.6, 87.17)">局</text><text class="cls-16" transform="translate(498.6 84.28) rotate(3.83)">紀</text><text class="cls-16" transform="matrix(0.98, 0.22, -0.22, 0.98, 538.5, 86.82)">錄</text></svg>