<svg id="圖層_1" data-name="圖層 1" xmlns="http://www.w3.org/2000/svg" viewBox="0 0 428 414"><defs><style>.cls-1{fill:#f5ea29;}</style></defs><title>pencil</title><path class="cls-1" d="M406.87,133.28a31.42,31.42,0,0,0-44.39,0L331,164.78V81.88a31.22,31.22,0,0,0-9.19-22.2L292.23,30.09A31.18,31.18,0,0,0,270,20.9H90.38A31.42,31.42,0,0,0,59,52.28V346.62A31.42,31.42,0,0,0,90.38,378H299.62A31.42,31.42,0,0,0,331,346.62v-93l75.86-75.93A31.37,31.37,0,0,0,406.87,133.28ZM301.42,253.6l-5.65,5.65-22.2,7.4,7.4-22.19,5.65-5.65Zm14.79-14.8L301.42,224c7.87-7.89,42.87-42.91,50.29-50.34l14.79,14.8ZM277.43,44.89,307,74.48c3.32,3.32,3.07,7,3.07,9.19H268.24V41.82C270.21,41.82,274,41.48,277.43,44.89Zm22.19,312.19H90.38a10.48,10.48,0,0,1-10.46-10.46V52.28A10.48,10.48,0,0,1,90.38,41.82H247.31V94.13a10.46,10.46,0,0,0,10.47,10.46h52.31v81.14l-30.87,30.89-14.79,14.79a10.54,10.54,0,0,0-2.53,4.09l-14.79,44.38a10.46,10.46,0,0,0,13.23,13.24l44.39-14.8a10.43,10.43,0,0,0,4.09-2.53l1.27-1.26v72.09A10.48,10.48,0,0,1,299.62,357.08Zm92.46-194.21-10.79,10.8-14.79-14.8,10.78-10.8a10.47,10.47,0,0,1,14.8,14.8Z"/><path class="cls-1" d="M111.31,146.44H257.78a10.46,10.46,0,1,0,0-20.92H111.31a10.46,10.46,0,0,0,0,20.92Z"/><path class="cls-1" d="M111.31,188.29H215.93a10.46,10.46,0,0,0,0-20.92H111.31a10.46,10.46,0,0,0,0,20.92Z"/><path class="cls-1" d="M111.31,230.14H215.93a10.47,10.47,0,0,0,0-20.93H111.31a10.47,10.47,0,0,0,0,20.93Z"/><path class="cls-1" d="M226.39,261.52a10.46,10.46,0,0,0-10.46-10.46H111.31a10.47,10.47,0,0,0,0,20.93H215.93A10.46,10.46,0,0,0,226.39,261.52Z"/><path class="cls-1" d="M257.78,315.23H195a10.46,10.46,0,0,0,0,20.92h62.78a10.46,10.46,0,1,0,0-20.92Z"/></svg>